<svg id="Layer_1" class="svg-animation" data-name="Layer 1" xmlns="http://www.w3.org/2000/svg" viewBox="0 0 903 902.97">
            <title></title>
            <g>
              <g id="inv-grp" class="section-grp animated">
                <path id="inv" d="M334.07,623.34l10.49-14.71a187.23,187.23,0,0,1-65.77-200l-18.65-6.22-.45-.25-105.08-56.5L28.56,327a451.32,451.32,0,0,0-20,133.39C8.53,606.82,78.25,737,186.3,819.46l59-114Z" transform="translate(-8.53 -8.91)" style="fill: #34aabd"/>
                <g id="inv-txt-grp" class="text-grp" transform="translate(0,-10)">
                  <text id="Communication_tools_" class="section-text" data-name="Communication tools " transform="translate(59.561 580.578)" fill="#fff" font-size="20" font-family="Gilroy-Medium, Gilroy" font-weight="500">
                    <tspan x="0" y="0">Communication tools
                    </tspan>
                  </text>
                  <text id="for_professional_and_" class="section-text" data-name="for professional and " transform="translate(66.334 606.243)" fill="#fff" font-size="20" font-family="Gilroy-Medium, Gilroy" font-weight="500">
                    <tspan x="0" y="0">for professional and
                    </tspan>
                  </text>
                  <text id="efficient_interactions." class="section-text" data-name="efficient interactions." transform="translate(61.7 631.909)" fill="#fff" font-size="20" font-family="Gilroy-Medium, Gilroy" font-weight="500">
                    <tspan x="0" y="0">efficient interactions.</tspan>
                  </text>
                </g>
                <g id="hicon">
                  <text id="inv-heading" class="section-heading" transform="translate(48.45 538.87) rotate(0.7)" style="font-size: 26px;fill: #fff;font-family: Gilroy-Medium, Gilroy, 'Roboto', sans-serif;font-weight: 500">I<tspan x="6.32" y="0" style="letter-spacing: -0.006986177884615385em">n</tspan>
                    <tspan x="20.8" y="0" style="letter-spacing: -0.020000751201923076em">ves</tspan>
                    <tspan x="59.77" y="0" style="letter-spacing: -0.028001051682692308em">t</tspan>
                    <tspan x="68.87" y="0">or
                    </tspan>
                    <tspan x="99.55" y="0" style="letter-spacing: -0.024996243990384616em">R</tspan>
                    <tspan x="114.79" y="0">ela</tspan>
                    <tspan x="152.13" y="0" style="letter-spacing: -0.002986027644230769em">t</tspan>
                    <tspan x="161.88" y="0" style="letter-spacing: -0.000018780048076923078em">ions</tspan>
                  </text>
                  <g id="inv-icon">
                    <path d="M136.14,513.78V501.27l-2.44-1.83v-8.23s1.83-3.35,5.48-3.35a6,6,0,0,1,5.19,3.35" transform="translate(-8.53 -8.91)" style="fill: none;stroke: #fff;stroke-linecap: round;stroke-linejoin: round;stroke-width: 2px"/>
                    <line x1="135.84" y1="504.86" x2="135.84" y2="496.63" style="fill: none;stroke: #fff;stroke-linecap: round;stroke-linejoin: round;stroke-width: 2px"/>
                    <circle cx="130.67" cy="471.29" r="3.67" style="fill: none;stroke: #fff;stroke-linecap: round;stroke-linejoin: round;stroke-width: 2px"/>
                    <path d="M174.25,513.78V501.27l2.44-1.83v-8.23a6.73,6.73,0,0,0-5.49-3.35,6,6,0,0,0-5.18,3.35" transform="translate(-8.53 -8.91)" style="fill: none;stroke: #fff;stroke-linecap: round;stroke-linejoin: round;stroke-width: 2px"/>
                    <line x1="157.49" y1="504.86" x2="157.49" y2="496.63" style="fill: none;stroke: #fff;stroke-linecap: round;stroke-linejoin: round;stroke-width: 2px"/>
                    <polyline points="140.11 483.82 135.84 489.01 140.11 494.19" style="fill: none;stroke: #fff;stroke-linecap: round;stroke-linejoin: round;stroke-width: 2px"/>
                    <polyline points="153.22 483.82 157.49 489.01 153.22 494.19" style="fill: none;stroke: #fff;stroke-linecap: round;stroke-linejoin: round;stroke-width: 2px"/>
                    <line x1="157.49" y1="489.01" x2="135.84" y2="489.01" style="fill: none;stroke: #fff;stroke-linecap: round;stroke-linejoin: round;stroke-width: 2px"/>
                    <circle cx="162.83" cy="471.55" r="3.67" style="fill: none;stroke: #fff;stroke-linecap: round;stroke-linejoin: round;stroke-width: 2px"/>
                  </g>
                </g>
              </g>
              <g id="live-grp" class="section-grp animated">
                <path id="live" d="M466.71,256.47l.41,17.11a187.1,187.1,0,0,1,167.13,122.7l18.56-5.66.52-.06,118.38-14.81,116.4-59.25C828.73,139.74,662.93,11.84,466.85,8.94l21.54,128.6Z" transform="translate(-8.53 -8.91)" style="fill: #c7e9ee"/>
                <g id="live-txt-grp" class="text-grp" data-name="Group" transform="translate(-10, -26)">
                  <text id="Interesting_alternative_" class="section-text" data-name="Interesting alternative " transform="translate(562.677 237.535)" fill="#189bb1" font-size="20" font-family="Gilroy-Medium, Gilroy" font-weight="500">
                    <tspan x="0" y="0">Interesting alternative
                    </tspan>
                  </text>
                  <text id="investment_opportunities" class="section-text" data-name="investment opportunities" transform="translate(548.656 263.642)" fill="#189bb1" font-size="20" font-family="Gilroy-Medium, Gilroy" font-weight="500">
                    <tspan x="0" y="0">investment opportunities</tspan>
                  </text>
                  <text id="for_our_investor_community." class="section-text" data-name="for our investor community." transform="translate(538.02 289.749)" fill="#189bb1" font-size="20" font-family="Gilroy-Medium, Gilroy" font-weight="500">
                    <tspan x="0" y="0">for our investor community.</tspan>
                  </text>
                </g>
                <g id="hicon">
                  <text id="live-heading" class="section-heading" transform="translate(581.63 181.33) rotate(0.7)" style="font-size: 26px;fill: #189bb1;font-family: Gilroy-Medium, Gilroy, 'Roboto', sans-serif;font-weight: 500">Li<tspan x="18.41" y="0" style="letter-spacing: -0.019981971153846152em">v</tspan>
                    <tspan x="31.36" y="0">e Mar</tspan>
                    <tspan x="98.93" y="0" style="letter-spacing: -0.045992337740384616em">k</tspan>
                    <tspan x="110.84" y="0" style="letter-spacing: -0.015005258413461538em">e</tspan>
                    <tspan x="125.6" y="0" style="letter-spacing: -0.02698692908653846em">t</tspan>
                    <tspan x="134.73" y="0">s</tspan>
                  </text>
                  <g id="live-icon">
                    <path d="M641.7,122.09v30.25s0,6.37,6.36,6.37H682.7" transform="translate(-8.53 -8.91)" style="fill: none;stroke: #189bb1;stroke-linecap: round;stroke-linejoin: round;stroke-width: 2px"/>
                    <polyline points="671.38 122.33 656.45 137.26 648.29 129.1 640.13 137.26" style="fill: none;stroke: #189bb1;stroke-linecap: round;stroke-linejoin: round;stroke-width: 2px"/>
                    <polyline points="671.28 132.59 671.28 122.43 661.33 122.43" style="fill: none;stroke: #189bb1;stroke-linecap: round;stroke-linejoin: round;stroke-width: 2px"/>
                  </g>
                </g>
              </g>
              <g id="liq-grp" class="section-grp animated">
                <path id="liq" d="M264.92,391.35l17.76,5.28a187.08,187.08,0,0,1,171.87-123.2l.17-18.1.09-.51,21.4-117.36L454.68,8.91C258.36,11.19,92.16,138.77,32.31,315.41L158.45,334.1Z" transform="translate(-8.53 -8.91)" style="fill: #0d96ad"/>
                <g id="liq-txt-grp" class="text-grp" data-name="Group" transform="translate(0,-10)">
                  <text id="Secondary_market_functionality_" class="section-text" data-name="Secondary market functionality " transform="translate(137.157 223.147)" fill="#fff" font-size="20" font-family="Gilroy-Medium, Gilroy" font-weight="500">
                    <tspan x="0" y="0">Secondary market functionality
                    </tspan>
                  </text>
                  <text id="for_buying_and_selling_shares." class="section-text" data-name="for buying and selling shares." transform="translate(148.669 248.011)" fill="#fff" font-size="20" font-family="Gilroy-Medium, Gilroy" font-weight="500">
                    <tspan x="0" y="0">for buying and selling shares.</tspan>
                  </text>
                </g>
                <g id="hicon">
                  <g id="liq-icon">
                    <path d="M310.53,141.19a8.47,8.47,0,0,1-6.75-3.43,1,1,0,0,0-1.53,0,8.36,8.36,0,0,1-13.5,0,1,1,0,0,0-.76-.38,1,1,0,0,0-.77.38,8.36,8.36,0,0,1-13.5,0,1,1,0,0,0-1.53,0,8.44,8.44,0,0,1-6.75,3.43,1,1,0,0,0,0,1.93,10.29,10.29,0,0,0,7.52-3.29,10.23,10.23,0,0,0,15,0,10.22,10.22,0,0,0,15,0,10.31,10.31,0,0,0,7.52,3.29" transform="translate(-8.53 -8.91)" style="fill: #fff"/>
                    <path d="M310.53,126.92a8.46,8.46,0,0,1-6.75-3.42,1,1,0,0,0-1.53,0,8.37,8.37,0,0,1-13.5,0,1,1,0,0,0-.76-.38,1,1,0,0,0-.77.38,8.37,8.37,0,0,1-13.5,0,1,1,0,0,0-1.53,0,8.43,8.43,0,0,1-6.75,3.42,1,1,0,0,0,0,1.93,10.28,10.28,0,0,0,7.52-3.28,10.25,10.25,0,0,0,15,0,10.24,10.24,0,0,0,15,0,10.3,10.3,0,0,0,7.52,3.28" transform="translate(-8.53 -8.91)" style="fill: #fff"/>
                    <path d="M310.53,155.46a8.47,8.47,0,0,1-6.75-3.43,1,1,0,0,0-1.53,0,8.36,8.36,0,0,1-13.5,0,1,1,0,0,0-.76-.38,1,1,0,0,0-.77.38,8.36,8.36,0,0,1-13.5,0,1,1,0,0,0-1.53,0,8.44,8.44,0,0,1-6.75,3.43,1,1,0,0,0,0,1.92A10.28,10.28,0,0,0,273,154.1a10.25,10.25,0,0,0,15,0,10.24,10.24,0,0,0,15,0,10.3,10.3,0,0,0,7.52,3.28" transform="translate(-8.53 -8.91)" style="fill: #fff"/>
                  </g>

                  <text id="liq-heading" class="section-heading" transform="matrix(1, 0.01, -0.01, 1, 230.24, 181.38)" style="font-size: 26px;fill: #fff;font-family: Gilroy-Medium, Gilroy, 'Roboto', sans-serif;font-weight: 500">Liquidi<tspan x="77.43" y="0" style="letter-spacing: 0.00800030048076923em">t</tspan>
                    <tspan x="87.46" y="0">y</tspan>
                  </text>
                </g>
              </g>
              <g id="reg-grp" class="section-grp animated">
                <path id="reg" d="M573.28,629.9l-10.54-14.23A187.09,187.09,0,0,1,354.8,616L343,631.45l-.38.35-87.56,81-59,113.88a451.67,451.67,0,0,0,519.72,5.79L624,739.62Z" transform="translate(-8.53 -8.91)" style="fill: #61bfcd"/>
                <g id="reg-txt-grp" class="text-grp" data-name="Group" transform="translate(-5,-10)">
                  <text id="Grow_with_good_governance_" class="section-text" data-name="Grow with good governance, " transform="translate(315.098 798.128)" fill="#fff" font-size="20" font-family="Gilroy-Medium, Gilroy" font-weight="500">
                    <tspan x="0" y="0">Grow with good governance,
                    </tspan>
                  </text>
                  <text id="compliance_and_error-free_" class="section-text" data-name="compliance and error-free " transform="translate(327.777 823.024)" fill="#fff" font-size="20" font-family="Gilroy-Medium, Gilroy" font-weight="500">
                    <tspan x="0" y="0">compliance and error-free
                    </tspan>
                  </text>
                  <text id="administration." class="section-text" transform="translate(382.756 847.92)" fill="#fff" font-size="20" font-family="Gilroy-Medium, Gilroy" font-weight="500">
                    <tspan x="0" y="0">administration.</tspan>
                  </text>
                </g>
                <g id="hicon">
                  <text id="reg-heading" class="section-heading" transform="translate(310.31 755.81) rotate(0.7)" style="font-size: 26px;fill: #fff;font-family: Gilroy-Medium, Gilroy, 'Roboto', sans-serif;font-weight: 500">
                    <tspan style="letter-spacing: -0.024996243990384616em">R</tspan>
                    <tspan x="15.24" y="0" style="letter-spacing: -0.0009765625em">e</tspan>
                    <tspan x="30.37" y="0" style="letter-spacing: -0.000018780048076923078em">g</tspan>
                    <tspan x="46.83" y="0" style="letter-spacing: -0.000995342548076923em">i</tspan>
                    <tspan x="52.52" y="0" style="letter-spacing: -0.019981971153846152em">s</tspan>
                    <tspan x="63.91" y="0">t</tspan>
                    <tspan x="73.74" y="0" style="letter-spacing: 0.010986328125em">r</tspan>
                    <tspan x="82.55" y="0">y Management</tspan>
                  </text>
                  <g id="reg-icon">
                    <rect x="417" y="682.97" width="50.28" height="38.98" rx="8.31" style="fill: none;stroke: #fff;stroke-miterlimit: 10;stroke-width: 2px"/>
                    <line x1="446.49" y1="694.87" x2="460.99" y2="694.87" style="fill: none;stroke: #fff;stroke-linecap: round;stroke-linejoin: round;stroke-width: 2px"/>
                    <line x1="446.49" y1="701.15" x2="460.99" y2="701.15" style="fill: none;stroke: #fff;stroke-linecap: round;stroke-linejoin: round;stroke-width: 2px"/>
                    <line x1="446.49" y1="706.95" x2="460.99" y2="706.95" style="fill: none;stroke: #fff;stroke-linecap: round;stroke-linejoin: round;stroke-width: 2px"/>
                    <circle cx="432.95" cy="696.32" r="4.83" style="fill: none;stroke: #fff;stroke-linecap: round;stroke-linejoin: round;stroke-width: 2px"/>
                    <path d="M432.3,722.64c0-5.34,4.11-8.22,9.18-8.22s9.19,2.88,9.19,8.22" transform="translate(-8.53 -8.91)" style="fill: none;stroke: #fff;stroke-linecap: round;stroke-linejoin: round;stroke-width: 2px"/>
                  </g>
                </g>
              </g>
              <g id="cap-grp" class="section-grp animated">
                <path id="cap" d="M891.83,328.08,775.28,387.39l-119.95,15-17.17,5.87a187.2,187.2,0,0,1-65.21,200l10.79,15.63.22.47L634,732.68l91.68,92.8c112.63-82.11,185.82-215.05,185.82-365.1A451.53,451.53,0,0,0,891.83,328.08Z" transform="translate(-8.53 -8.91)" style="fill: #92d4de"/>
                <g id="cap-txt-grp" data-name="Group" transform="translate(-10,-10)">
                  <text id="Access_to_an_" class="section-text" data-name="Access to an " transform="translate(695.904 579.578)" fill="#189bb1" font-size="20" font-family="Gilroy-Medium, Gilroy" font-weight="500">
                    <tspan x="0" y="0">Access to an
                    </tspan>
                  </text>
                  <text id="investment-ready_" class="section-text" data-name="investment-ready " transform="translate(670.601 604.998)" fill="#189bb1" font-size="20" font-family="Gilroy-Medium, Gilroy" font-weight="500">
                    <tspan x="0" y="0">investment-ready
                    </tspan>
                  </text>
                  <text id="community_and_" class="section-text" data-name="community and " transform="translate(682.605 630.419)" fill="#189bb1" font-size="20" font-family="Gilroy-Medium, Gilroy" font-weight="500">
                    <tspan x="0" y="0">community and
                    </tspan>
                  </text>
                  <text id="secondary_markets." class="section-text" data-name="secondary markets." transform="translate(662.245 655.839)" fill="#189bb1" font-size="20" font-family="Gilroy-Medium, Gilroy" font-weight="500">
                    <tspan x="0" y="0">secondary markets.</tspan>
                  </text>
                </g>
                <g id="hicon">
                  <text id="cap-heading" class="section-heading" transform="translate(653.78 538.87) rotate(0.7)" style="font-size: 26px;fill: #189bb1;font-family: Gilroy-Medium, Gilroy, 'Roboto', sans-serif;font-weight: 500">
                    <tspan style="letter-spacing: -0.004995492788461538em">C</tspan>
                    <tspan x="19.08" y="0">api</tspan>
                    <tspan x="57.72" y="0" style="letter-spacing: -0.028001051682692308em">t</tspan>
                    <tspan x="66.82" y="0">al
                    </tspan>
                    <tspan x="95.5" y="0" style="letter-spacing: -0.024996243990384616em">R</tspan>
                    <tspan x="110.73" y="0">a</tspan>
                    <tspan x="127.19" y="0" style="letter-spacing: -0.000995342548076923em">i</tspan>
                    <tspan x="132.88" y="0" style="letter-spacing: -0.004995492788461538em">s</tspan>
                    <tspan x="144.66" y="0">ing</tspan>
                  </text>
                  <g id="cap-icon">
                    <path d="M734.84,484.13a4.59,4.59,0,0,0-2.31,4c0,3.75,4,4.32,4,4.32" transform="translate(-8.53 -8.91)" style="fill: none;stroke: #189bb1;stroke-linecap: round;stroke-linejoin: round;stroke-width: 2px"/>
                    <path d="M742.19,503a10.71,10.71,0,0,1-4.62-8.65c0-5.77,4.62-11.53,8.08-12.11s17,0,17,0,.86-2.88,6.92-3.75v5.19s3.75,2.31,5.19,5.48c2.59,0,2.59.29,2.59.29v10.66H773s-3.46,3.75-5.48,4.62v6.05s-4.61,1.16-8.07,0c0-4.9-.29-5.48-.29-5.48h-7.5v6.06s-6.08,1.08-8.36-.29A37.11,37.11,0,0,0,742.19,503Z" transform="translate(-8.53 -8.91)" style="fill: none;stroke: #189bb1;stroke-linecap: round;stroke-linejoin: round;stroke-width: 2px"/>
                    <circle cx="757.73" cy="482.43" r="0.72" style="fill: none;stroke: #189bb1;stroke-linecap: round;stroke-linejoin: round;stroke-width: 2px"/>
                    <path d="M745.36,477.93c.86-4,5.19-6.05,8.65-6.05a8.1,8.1,0,0,1,7.49,5.19" transform="translate(-8.53 -8.91)" style="fill: none;stroke: #189bb1;stroke-linecap: round;stroke-linejoin: round;stroke-width: 2px"/>
                  </g>
                </g>
              </g>
            </g>
            <g id="investors-grp" class="section-grp animated">
              <path d="M481.64,399.88H438.42a4.89,4.89,0,0,0-4.89,4.89V438a4.89,4.89,0,0,0,4.89,4.89H451v10.5l12.11-10.5h18.5a4.89,4.89,0,0,0,4.89-4.89V404.77A4.89,4.89,0,0,0,481.64,399.88Z" transform="translate(-8.53 -8.91)" style="fill: none;stroke: #189bb1;stroke-linecap: round;stroke-linejoin: round;stroke-width: 3px"/>
              <path d="M457.25,431A8.65,8.65,0,0,1,455,430a9.35,9.35,0,0,1-2-1.53l1.51-2.05a8.48,8.48,0,0,0,2.5,1.82,6.69,6.69,0,0,0,2.87.61,5.22,5.22,0,0,0,3.33-.91,3.18,3.18,0,0,0,1.15-2.66v0a2.72,2.72,0,0,0-.52-1.75,3.08,3.08,0,0,0-1.34-1,12.15,12.15,0,0,0-2.11-.58l-.09,0-.08,0-.18,0a1.08,1.08,0,0,0-.19,0,20.55,20.55,0,0,1-3.1-.83,4.45,4.45,0,0,1-2-1.56,5,5,0,0,1-.84-3.1h0a6.67,6.67,0,0,1,.77-3.33,5,5,0,0,1,2.27-2.06,9.46,9.46,0,0,1,5.65-.47,9.76,9.76,0,0,1,1.92.67,10.69,10.69,0,0,1,1.87,1.11l-1.4,2.06a9,9,0,0,0-2.2-1.28,6,6,0,0,0-2.15-.42,4.72,4.72,0,0,0-3.14.92,3.22,3.22,0,0,0-1.08,2.64v0A2.53,2.53,0,0,0,457,418a3.64,3.64,0,0,0,1.47.95,20.36,20.36,0,0,0,2.38.63l.09,0,.1,0,.15,0,.14.05a15.2,15.2,0,0,1,2.86.89,4.54,4.54,0,0,1,1.92,1.65,5.36,5.36,0,0,1,.77,3.05v0a6.23,6.23,0,0,1-.8,3.26,4.93,4.93,0,0,1-2.36,2,9.6,9.6,0,0,1-3.82.68A11,11,0,0,1,457.25,431ZM459,408h2.46v3.22H459Zm0,22.14h2.46v3.4H459Z" transform="translate(-8.53 -8.91)" style="fill: #189bb1"/>
              <text id="Investors-heading" transform="translate(370.54 486.34)" style="font-size: 40.43498229980469px;fill: #189bb1;font-family: Gilroy-Medium, Gilroy, 'Roboto', sans-serif;font-weight: 500">I<tspan x="9.83" y="0" style="letter-spacing: -0.006991837949966546em">n</tspan>
                <tspan x="32.35" y="0" style="letter-spacing: -0.019985305366484688em">ves</tspan>
                <tspan x="92.96" y="0" style="letter-spacing: -0.02800357893950332em">t</tspan>
                <tspan x="107.11" y="0">o</tspan>
                <tspan x="131.45" y="0" style="letter-spacing: -0.01898302116985736em">r</tspan>
                <tspan x="143.95" y="0">s</tspan>
              </text>
            </g>
            <g id="arrows" class="arrow-grp">
              <polygon id="arrow-1" class="arrow animated" points="323.71 350.49 332.56 359.33 355.03 357.03 357.42 334.47 348.49 325.71 346.36 348.19 323.71 350.49" style="fill: #addee6;fill-rule: evenodd"/>
              <polygon id="arrow-2" class="arrow animated" points="467.96 315.69 467.96 303.17 450.44 288.91 432.8 303.17 432.92 315.69 450.31 301.3 467.96 315.69" style="fill: #addee6;fill-rule: evenodd"/>
              <polygon id="arrow-3" class="arrow animated" points="551.37 325.4 542.52 334.25 544.82 356.72 567.38 359.11 576.14 350.18 553.67 348.05 551.37 325.4" style="fill: #addee6;fill-rule: evenodd"/>
              <polygon id="arrow-4" class="arrow animated" points="585.95 468.92 598.46 468.92 612.72 451.4 598.46 433.76 585.95 433.89 600.34 451.28 585.95 468.92" style="fill: #addee6;fill-rule: evenodd"/>
              <polygon id="arrow-5" class="arrow animated" points="576.23 553.34 567.38 544.49 544.91 546.79 542.52 569.35 551.46 578.11 553.58 555.64 576.23 553.34" style="fill: #addee6;fill-rule: evenodd"/>
              <polygon id="arrow-6" class="arrow animated" points="429.71 587.91 429.71 600.42 447.23 614.69 464.87 600.42 464.75 587.91 447.35 602.3 429.71 587.91" style="fill: #addee6;fill-rule: evenodd"/>
              <polygon id="arrow-7" class="arrow animated" points="348.3 578.2 357.14 569.35 354.85 546.88 332.28 544.49 323.52 553.42 346 555.55 348.3 578.2" style="fill: #addee6;fill-rule: evenodd"/>
              <polygon id="arrow-8" class="arrow animated" points="313.72 433.68 301.21 433.68 286.94 451.19 301.21 468.84 313.72 468.71 299.33 451.32 313.72 433.68" style="fill: #addee6;fill-rule: evenodd"/>
            </g>
              <style>
            
                /* hover effect */
                .section-text {opacity:0;height:0px;transition:all .2s ease-out;-webkit-transition:all .2s ease-out;
                font-size: 20px;font-family:'Gilroy-Medium','Gilroy','Roboto', sans-serif;font-weight: 500;}
                .section-heading {font-size: 26px;fill: #fff;font-family: 'Gilroy-Medium', 'Gilroy', 'Roboto', sans-serif;font-weight: 500;}
                #hicon {
                    transform: translateY(40px);
                    transition:ease all .3s;
                    -webkit-transform: translateY(40px);
                    -webkit-transition:ease all .3s;
                }
                .section-grp {}
                .section-grp:hover  #hicon {  transform: translateY(0px); -webkit-transform: translateY(0px);}
                .section-grp:hover .section-text {opacity:1;height:initial;transition:all .3s ease-out;-webkit-transition:all .3s ease-out;}
                #investors-grp {opacity:0;
                  animation-name: fadeIn;
                  animation-duration: 5s;
                  animation-iteration-count: 1;
                  animation-fill-mode: forwards;
                  -webkit-animation-name: fadeIn;
                  -webkit-animation-duration: 5s;
                  -webkit-animation-iteration-count: 1;
                  -webkit-animation-fill-mode: forwards;
                  }
                .arrow {
                  opacity: 0;
                  animation-name: fadeIn;
                  animation-duration: 1.4s;
                  animation-iteration-count: 1;
                  animation-fill-mode: forwards;
                  -webkit-animation-name: fadeIn;
                  -webkit-animation-duration: 1.4s;
                  -webkit-animation-iteration-count: 1;
                  -webkit-animation-fill-mode: forwards;
                  fill: #39b7d1;fill-rule: evenodd;
                }
                .section-grp {
                  opacity: 0;
                  animation-name: fadeIn;
                  animation-duration: .5s;
                  animation-iteration-count: 1;
                  animation-fill-mode: forwards;
                  -webkit-animation-name: fadeIn;
                  -webkit-animation-duration: .5s;
                  -webkit-animation-iteration-count: 1;
                  -webkit-animation-fill-mode: forwards;
                }
            
                .arrow:nth-child(2) {animation-delay: 0.0s;
                -webkit-animation-delay: 0.0s}
                .arrow:nth-child(3) {animation-delay: 0.3s;
                -webkit-animation-delay: 0.3s;}
                .arrow:nth-child(4) {animation-delay: 0.6s; 
                -webkit-animation-delay: 0.6s;}
                .arrow:nth-child(5) {animation-delay: .9s; 
                -webkit-animation-delay: 0.9s;}
                .arrow:nth-child(6) {animation-delay: 1.2s; 
                -webkit-animation-delay: 1.2s;}
                .arrow:nth-child(7) {animation-delay: 1.5s; 
                -webkit-animation-delay: 1.5s;}
                .arrow:nth-child(8) {animation-delay: 1.8s; 
                -webkit-animation-delay: 1.8s;}
                .arrow:nth-child(1) {animation-delay: 2.1s; 
                -webkit-animation-delay: 2.1s;}
            
                #live-grp {animation-delay: .5s; 
                -webkit-animation-delay: 0.5s;}
                #cap-grp {animation-delay: 1s; 
                -webkit-animation-delay: 1s;}
                #reg-grp {animation-delay: 1.5s; 
                -webkit-animation-delay: 1.5s;}
                #inv-grp {animation-delay: 2s; 
                -webkit-animation-delay:2s;}
                #liq-grp {animation-delay: 2.5s; 
                -webkit-animation-delay: 2.5s;}
                @keyframes fadeIn {
                  0% {
                    opacity: 0;
                  }
                  100% {
                    opacity: 1;
                  }
                }
            
         /* .inv-anim-container .inv-iframe {display:none;} */
         /*  .showAnim .inv-iframe {display:block;} */
          .animated {animation-play-state: paused;-webkit-animation-play-state:paused;}
          .showAnim .animated {animation-play-state: running;-webkit-animation-play-state: running;}
          iframe.inv-iframe {border: none;overflow:hidden;margin-top:1rem;}

         @media only screen and (max-width: 1280px) {
          iframe.inv-iframe {
            width:500px !important;
            height:500px !important;
          }
        }
          @media only screen and (max-width: 768px) {
          iframe.inv-iframe {
            width:400px !important;
            height:400px !important;
         }
        }
         @media only screen and (max-width:500px) {
          iframe.inv-iframe {
            width:300px !important;
            height:300px !important;
          }
        }
        </style>
                <script>
                    const svgAnim = document.querySelectorAll('.svg-animation');
                    const svgObserver = new IntersectionObserver(
                        entries => {
                            entries.forEach(entry => {
                                entry.target.classList.toggle('showAnim', entry.isIntersecting)
                                if (entry.isIntersecting) svgObserver.unobserve(entry.target);
                            })
                        },
                        {
                            threshold:1,
                        }
                    )
                    
                    svgAnim.forEach(inv => {
                    svgObserver.observe(inv);
               });  

                 
                
 </script>
</svg>
